# xmcd CD database file
#
# Track frame offsets:
#	150
#	32183
#	68864
#	107001
#	149591
#
# Disc length: 2413 seconds
#
# Revision: 0
# Processed by: cddbd v1.5.2PL0 Copyright (c) Steve Scherf et al.
# Submitted via: CDex 1.70beta2
#
DISCID=47096b05
DTITLE=Ray O'Sunshine - Banjo Singalong
DYEAR=2000
DGENRE=Jazz
TTITLE0=1. Medley: Happy Days Are Here Again - I'm Sitting On Top Of The World - On The Sunny Side Of The Street - I'm Looking For A Four Leaf Clover - I'm Forever Blowing Bubbles - On A Slow Boat To China - Alexander's Ragtime Band - If You Knew Susie /
TTITLE0=After You've
TTITLE1=2. Medley: By The Light Of The Silvery Moon - Pennies From Heaven - Side By Side - You Made Me Love You - My Blue Heaven - Walkin' My Baby Back Home - Blueberry Hill - (I Don't Know Why I Love You) But I Do - For Me And My Gal - You Were Meant Fo
TTITLE1=r Me
TTITLE2=3. Medley: You Are My Sunshine - Yes Sir, That's My Baby - When The Red Red Robin Comes Bob Bob Bobbin' Along - Baby Face - Swanee - April Showers - When The Saints Go Marching In - Down By The Riverside - Don't Sit Under The Apple Tree - Remembe
TTITLE2=r You - 
TTITLE3=4. Medley: Row, Row, Row - Sweet Georgia Brown - Ain't She Sweet? - Five Foot Two, Eyes Of Blue - Yes! We Have No Bananas - Toot Toot Tootsie (Goo'bye) - Goodnight Sweetheart - Swinging On A Star - Shine On Harvest Moon - Rock A Bye Your Baby Wit
TTITLE3=h A Dixie Mel
TTITLE4=5. Medley: After The Ball - The Loveliest Night Of The Year - Cruising Down The River - My Heart Cries For You - Powder Your Face With Sunshine - Dream A Little Dream Of Me - If You Were The Only Girl In The World - I Cried For You - I Don't Know
TTITLE4=Why I Love Y
EXTD=YEAR: 2000
EXTT0=
EXTT1=
EXTT2=
EXTT3=
EXTT4=
PLAYORDER=
